<svg xmlns="http://www.w3.org/2000/svg" viewBox="0 0 389 384" enable-background="new 0 0 389 384"><path fill="#3A82C2" d="M194.5 378.2C91.7 378.2 8.1 294.5 8.1 191.8 8.1 89 91.7 5.3 194.5 5.3c102.8 0 186.4 83.6 186.4 186.4 0 102.8-83.6 186.5-186.4 186.5zm0-369C93.8 9.2 11.9 91.1 11.9 191.8c0 100.7 81.9 182.6 182.6 182.6 100.7 0 182.6-81.9 182.6-182.6 0-100.7-81.9-182.6-182.6-182.6zM194.5 358.6c-92 0-166.8-74.8-166.8-166.8S102.5 24.9 194.5 24.9s166.8 74.8 166.8 166.8-74.8 166.9-166.8 166.9zm0-329.8c-89.9 0-163 73.1-163 163s73.1 163 163 163 163-73.1 163-163-73.1-163-163-163zM194.5 339c-81.2 0-147.2-66-147.2-147.2s66-147.2 147.2-147.2 147.2 66 147.2 147.2S275.7 339 194.5 339zm0-290.6c-79.1 0-143.4 64.3-143.4 143.4s64.3 143.4 143.4 143.4 143.4-64.3 143.4-143.4S273.6 48.4 194.5 48.4zM194.5 319.4c-70.4 0-127.6-57.2-127.6-127.6 0-70.4 57.2-127.6 127.6-127.6 70.4 0 127.6 57.2 127.6 127.6 0 70.3-57.2 127.6-127.6 127.6zm0-251.4c-68.2 0-123.8 55.5-123.8 123.8s55.5 123.8 123.8 123.8S318.3 260 318.3 191.8 262.7 68 194.5 68zM194.5 299.8c-59.6 0-108-48.5-108-108s48.5-108 108-108 108 48.5 108 108-48.4 108-108 108zm0-212.2c-57.4 0-104.2 46.7-104.2 104.2S137 296 194.5 296s104.2-46.7 104.2-104.2S251.9 87.6 194.5 87.6zM194.5 280.2c-48.7 0-88.4-39.7-88.4-88.4s39.7-88.4 88.4-88.4 88.4 39.7 88.4 88.4-39.7 88.4-88.4 88.4zm0-173c-46.6 0-84.5 37.9-84.5 84.5s37.9 84.5 84.5 84.5 84.5-37.9 84.5-84.5-37.9-84.5-84.5-84.5zM194.5 260.5c-37.9 0-68.8-30.9-68.8-68.8s30.9-68.8 68.8-68.8 68.8 30.9 68.8 68.8c0 38-30.9 68.8-68.8 68.8zm0-133.7c-35.8 0-64.9 29.1-64.9 64.9 0 35.8 29.1 64.9 64.9 64.9 35.8 0 64.9-29.1 64.9-64.9 0-35.8-29.1-64.9-64.9-64.9z"/><circle fill="#9BCA3E" cx="142.1" cy="258.3" r="11.6"/><path fill="#2F7BBF" d="M142.1 265c-3.3 0-6-3-6-6h2.8c0 2 1.5 3.2 3.2 3.2s3.2-1.2 3.2-3.2h2.8c0 3-2.7 6-6 6zM144.4 252.6h3.5v3.5h-3.5zM136.3 252.6h3.5v3.5h-3.5z"/><path fill="#63A1D7" d="M80.8 141.7c0 10.6-8 18.9-18.6 18.9-10.6 0-19.1-8.6-19.1-19.6H61v-18.3c10 0 19.8 8.4 19.8 19zM57 137v-19.8c-10 1.1-18.7 9.8-19.7 19.8H57z"/><circle fill="#204361" cx="194.5" cy="191.8" r="52.5"/><path fill="#ECECEC" d="M194.5 144.4c-26.1 0-47.3 21.2-47.3 47.3 0 13.3 5.5 25.3 14.3 33.9l66.9-66.9c-8.6-8.8-20.6-14.3-33.9-14.3z"/><path fill="#fff" d="M161.5 225.6c8.5 8.3 20.2 13.4 33 13.4 26.1 0 47.3-21.2 47.3-47.3 0-12.9-5.1-24.5-13.4-33l-66.9 66.9z"/><path fill="#204361" d="M194.3 160.2c-.8 0-1.4-.6-1.4-1.4V149c0-.8.6-1.4 1.4-1.4s1.4.6 1.4 1.4v9.8c0 .7-.6 1.4-1.4 1.4zM194.3 235.9c-.8 0-1.4-.6-1.4-1.4v-9.8c0-.8.6-1.4 1.4-1.4s1.4.6 1.4 1.4v9.8c0 .8-.6 1.4-1.4 1.4zM161 193.2h-9.8c-.8 0-1.4-.6-1.4-1.4s.6-1.4 1.4-1.4h9.8c.8 0 1.4.6 1.4 1.4s-.6 1.4-1.4 1.4zM236.8 193.2H227c-.8 0-1.4-.6-1.4-1.4s.6-1.4 1.4-1.4h9.8c.8 0 1.4.6 1.4 1.4s-.6 1.4-1.4 1.4z"/><path fill="#3A82C2" d="M215 212.4c-.3 0-.7-.1-.9-.3l-21.6-18.6 24.7-40.6c.4-.7 1.3-.9 2-.5s.9 1.3.5 2L196.2 193l19.7 17c.6.5.7 1.4.2 2-.3.2-.7.4-1.1.4z"/><path fill="#63A1D7" d="M243.5 272.1c-5.3 0-9.5 4.3-9.5 9.5 0 5.3 9.5 14.3 9.5 14.3s9.5-9.1 9.5-14.3c.1-5.2-4.2-9.5-9.5-9.5zm0 13.6c-2.3 0-4.1-1.8-4.1-4.1s1.8-4.1 4.1-4.1 4.1 1.8 4.1 4.1-1.8 4.1-4.1 4.1z"/><path fill="#F68B20" d="M81.7 255h-9.6l3.8-15.8-25 22.8h9.6l-3.8 15.8z"/><path fill="#9BCA3E" d="M251.6 112c-4.3-.1-7.6-3.7-7.5-7.9.1-4.3 3.7-7.6 7.9-7.5 4.3.1 7.6 3.7 7.5 7.9-.1 4.3-3.6 7.6-7.9 7.5zm-.6-4.6l4.8-4.5-1.5-1.6-3.2 3-1.5-1.6-1.6 1.5 3 3.2z"/><path fill="#63A1D7" d="M325.1 161.2h-17.5l-3.8 12.5v12.5h25v-12.5l-3.7-12.5zm1.3 22.5h-20v-7.5h20v7.5zm-2.5-2.5h-2.5v-2.5h2.5v2.5z"/></svg>