<svg id="Layer_1" xmlns="http://www.w3.org/2000/svg" viewBox="0 0 80 80"><style>.st0{fill:url(#SVGID_1_);} .st1{fill:url(#SVGID_2_);} .st2{fill:url(#SVGID_3_);} .st3{fill:#FFFFFF;stroke:url(#SVGID_4_);stroke-width:2.789;stroke-miterlimit:10;} .st4{fill:url(#SVGID_5_);} .st5{fill:url(#SVGID_6_);} .st6{fill:url(#SVGID_7_);} .st7{fill:none;stroke:url(#SVGID_8_);stroke-width:3;stroke-linejoin:round;stroke-miterlimit:10;} .st8{fill:url(#SVGID_9_);} .st9{fill:#FFFFFF;stroke:url(#SVGID_10_);stroke-width:3;stroke-miterlimit:10;} .st10{fill:none;stroke:url(#SVGID_11_);stroke-width:3;stroke-miterlimit:10;} .st11{fill:none;stroke:#FFDB70;stroke-width:2;stroke-miterlimit:10;} .st12{fill:url(#SVGID_12_);stroke:#FFFFFF;stroke-width:0.5;stroke-miterlimit:10;} .st13{fill:url(#SVGID_13_);stroke:#FFFFFF;stroke-width:0.5;stroke-miterlimit:10;} .st14{fill:url(#SVGID_14_);stroke:#FFFFFF;stroke-width:0.5;stroke-miterlimit:10;} .st15{fill:url(#SVGID_15_);stroke:#FFFFFF;stroke-width:0.5;stroke-miterlimit:10;} .st16{fill:url(#SVGID_16_);stroke:#FFFFFF;stroke-width:0.5;stroke-miterlimit:10;} .st17{fill:url(#SVGID_17_);stroke:#FFFFFF;stroke-width:0.5;stroke-miterlimit:10;} .st18{fill:none;stroke:url(#SVGID_18_);stroke-width:2.5;stroke-linecap:round;stroke-linejoin:round;stroke-miterlimit:10;} .st19{fill:none;stroke:url(#SVGID_19_);stroke-width:2.5;stroke-linecap:round;stroke-linejoin:round;stroke-miterlimit:10;} .st20{fill:none;stroke:url(#SVGID_20_);stroke-width:2.5;stroke-linecap:round;stroke-linejoin:round;stroke-miterlimit:10;} .st21{fill:none;stroke:url(#SVGID_21_);stroke-width:2.5;stroke-linecap:round;stroke-linejoin:round;stroke-miterlimit:10;} .st22{fill:url(#SVGID_22_);}</style><linearGradient id="SVGID_1_" gradientUnits="userSpaceOnUse" x1="-4.555" y1="727.77" x2="81.675" y2="830.535" gradientTransform="matrix(1 0 0 -1 0 794)"><stop offset="0" stop-color="#F7945D"/><stop offset=".183" stop-color="#F7985E"/><stop offset=".394" stop-color="#F9A161"/><stop offset=".618" stop-color="#FAB164"/><stop offset=".851" stop-color="#FFCA6D"/><stop offset="1" stop-color="#FFDB71"/></linearGradient><path class="st0" d="M34.756 9.368c-5.034 0-9.14 4.105-9.14 9.14s9.14 15.954 9.14 15.954 9.14-10.92 9.14-15.955-4.028-9.14-9.14-9.14zm0 12.547c-1.86 0-3.408-1.55-3.408-3.408s1.55-3.408 3.408-3.408 3.408 1.548 3.408 3.407-1.472 3.408-3.408 3.408z"/><linearGradient id="SVGID_2_" gradientUnits="userSpaceOnUse" x1="21.856" y1="709.512" x2="108.114" y2="812.31" gradientTransform="matrix(1 0 0 -1 0 794)"><stop offset="0" stop-color="#F7945D"/><stop offset=".183" stop-color="#F7985E"/><stop offset=".394" stop-color="#F9A161"/><stop offset=".618" stop-color="#FAB164"/><stop offset=".851" stop-color="#FFCA6D"/><stop offset="1" stop-color="#FFDB71"/></linearGradient><path class="st1" d="M62.56 26.95c-4.57 0-8.21 3.718-8.21 8.21 0 4.57 8.21 14.406 8.21 14.406s8.21-9.836 8.21-14.406c0-4.493-3.64-8.21-8.21-8.21zm0 11.307c-1.703 0-3.097-1.394-3.097-3.098 0-1.705 1.394-3.1 3.098-3.1 1.705 0 3.1 1.395 3.1 3.1 0 1.703-1.395 3.097-3.1 3.097z"/><linearGradient id="SVGID_3_" gradientUnits="userSpaceOnUse" x1="1.853" y1="721.584" x2="87.946" y2="824.186" gradientTransform="matrix(1 0 0 -1 0 794)"><stop offset="0" stop-color="#F7945D"/><stop offset=".183" stop-color="#F7985E"/><stop offset=".394" stop-color="#F9A161"/><stop offset=".618" stop-color="#FAB164"/><stop offset=".851" stop-color="#FFCA6D"/><stop offset="1" stop-color="#FFDB71"/></linearGradient><path class="st2" d="M19.73 37.948c-7.512 0-11.462 5.73-10.3 12.082 1.162 6.428 10.3 14.948 10.3 20.602 0-5.576 9.373-15.025 10.302-20.524 1.084-6.584-2.866-12.16-10.3-12.16zm0 14.483c-2.632 0-4.723-2.09-4.723-4.723s2.09-4.724 4.724-4.724 4.725 2.09 4.725 4.724c0 2.633-2.168 4.724-4.724 4.724z"/><linearGradient id="SVGID_4_" gradientUnits="userSpaceOnUse" x1="25.107" y1="51.592" x2="56.797" y2="51.592"><stop offset="0" stop-color="#F7945D"/><stop offset="1" stop-color="#FFDB71"/></linearGradient><path class="st3" d="M39.093 35.78l15.025 9.99M25.694 67.3L56.21 53.13"/></svg>