<?xml version="1.0" encoding="utf-8"?>
<!-- Generator: Adobe Illustrator 18.1.1, SVG Export Plug-In . SVG Version: 6.00 Build 0)  -->
<svg version="1.1" id="Layer_1" xmlns="http://www.w3.org/2000/svg" xmlns:xlink="http://www.w3.org/1999/xlink" x="0px" y="0px"
	 viewBox="0 0 1110.8 195.2" enable-background="new 0 0 1110.8 195.2" xml:space="preserve">
<g>
	<g>
		<g>
			<g>
				<g>
					<path fill="#FFFFFF" d="M958,84.5h-22.3l-21.9,39.6h-29.4V84.5h-15.2v47.4h56l5-9h34.1l5.2,9h15.4L958,84.5z M933.5,116
						L947,91.4h0.2l13.6,24.6H933.5z"/>
					<path fill="#FFFFFF" d="M1031.9,116.1c11.7-1.2,16.2-4.9,16.2-15.3c0-13.3-7-16.3-28.1-16.3h-35v47.4h15.2V92.2h19.8
						c11.4-0.1,13,1.8,13,8.5c0,6.4-2,7.7-11.9,7.9H1004l27.5,23.1h19.2L1031.9,116.1z"/>
					<path fill="#FFFFFF" d="M1070.4,104.1h37v7.5h-37v12.6h39.3v7.8h-54.5V84.5h54.2v7.8h-39V104.1z"/>
				</g>
				<g>
					<path fill="#FFFFFF" d="M522.5,122.9h-28.8c-11.8,0-15.4-6.3-15.4-12.4V97.6c0-9.1,5-11.3,18.3-11.3h22.5v0h8.2v-8.9h-30.7
						c-25.1,0-35.8,5.5-35.8,20.3v12.9c0,11.3,5.3,21.4,32.8,21.4h33.6v-8.9L522.5,122.9L522.5,122.9z"/>
				</g>
				<g>
					<path fill="#FFFFFF" d="M548.3,124h36.9v7.8h-52.1V84.4h15.2V124z"/>
				</g>
				<g>
					<path fill="#FFFFFF" d="M651.7,101.2V114c0,15.2-9.8,18.1-33.7,18.1c-24.5,0-33.4-2.5-33.4-18.1v-12.8
						c0-14.7,8.3-17.3,33.4-17.3C640.7,83.9,651.7,86,651.7,101.2z M599.7,101.2V114c0,9.4,3.1,10.3,18.2,10.3
						c13.8,0,18.5-1.1,18.5-10.3v-12.8c0.3-8.9-5.1-9.5-18.5-9.5C601.6,91.7,600.1,93.7,599.7,101.2z"/>
				</g>
				<g>
					<path fill="#FFFFFF" d="M723,84.3V118c0,13.2-13.8,14.1-33,14.1c-18.5,0-32.8-0.8-32.8-14.1V84.3h15.2V118
						c0,4.9,3,6.3,17.6,6.3c14,0,17.8-1.2,17.8-6.3V84.3H723z"/>
				</g>
				<g>
					<path fill="#FFFFFF" d="M731.1,84.4h37.7c21.8,0,31.1,4.7,31.1,17.6v11.2c0,9.9-4.6,18.6-28.6,18.6h-40.3V84.4z M771.3,124
						c10.2,0,13.4-5.5,13.4-10.8V102c0-7.9-4.3-9.9-15.9-9.9h-22.6V124H771.3z"/>
				</g>
				<g>
					<path fill="#FFFFFF" d="M822.8,101.1h39.9v8.5h-39.9v22.2h-17.2V78h59.2v8.8h-42V101.1z"/>
				</g>
			</g>
		</g>
	</g>
	
		<radialGradient id="SVGID_1_" cx="339.2699" cy="109.2709" r="80.8503" fx="337.2908" fy="113.4299" gradientUnits="userSpaceOnUse">
		<stop  offset="0" style="stop-color:#FFFFFF"/>
		<stop  offset="0.1902" style="stop-color:#FCE800"/>
		<stop  offset="0.8593" style="stop-color:#EC8F27"/>
	</radialGradient>
	<polygon fill-rule="evenodd" clip-rule="evenodd" fill="url(#SVGID_1_)" points="332.6,57.5 342.2,23.9 343.6,24.1 344.6,59.3 
		362.6,29.5 364.2,30.3 355.8,64.1 381.3,39.9 382.6,41.1 365.4,71.7 396.4,55.3 397.4,56.5 372.8,81.7 407,73.9 407.8,75.3 
		377.4,93.1 412.6,94.4 412.6,95.9 378.6,105.3 412.4,115.3 412.4,116.7 377.2,117.3 407,135.9 406.2,137.5 372.3,128.9 
		396.2,154.3 395.4,155.7 365,138.3 381.3,169.1 379.8,170.3 354.8,145.7 363,179.5 361.4,180.5 343.6,150.3 343.1,185.1 
		341.2,185.5 331.6,151.9 321.6,185.5 319.8,185.1 319.8,150.3 318.8,149.9 299.4,179.1 307.8,145.3 282.2,169.3 280.8,168.1 
		298.2,137.7 267,153.9 266,152.7 290.6,127.9 256.2,135.5 255.8,134.1 286.2,116.3 251.4,114.9 250.8,113.5 284.6,103.9 
		251.2,94.1 251.4,92.5 286.4,91.9 256.8,73.9 257,72.3 291.3,80.9 267,55.3 268.2,53.9 299,70.7 282.2,40.3 283.2,39.1 309,63.7 
		300.6,29.5 300.3,28.9 320.6,59.3 321,23.9 323,23.9 	"/>
	<g>
		<path fill="#F68B1F" d="M427.5,170.7c0-33.6-27.2-60.8-60.8-60.8c-13.6,0-26.1,4.4-36.2,11.9c1.3-6.4,1.9-13,1.9-19.7
			C332.5,46.3,287.2,1,231.3,1c-44.5,0-82.3,28.7-95.9,68.7c-7.6-5.7-17.1-9.1-27.3-9.1c-25.2,0-45.6,20.4-45.6,45.6
			c0,3.9,0.5,7.7,1.4,11.3C29,118.5,1,147.1,1,182.2c0,4.1,0.4,8.1,1.1,12h420.7C425.9,187,427.5,179,427.5,170.7z"/>
	</g>
	<linearGradient id="SVGID_2_" gradientUnits="userSpaceOnUse" x1="231.347" y1="81.211" x2="231.347" y2="1.91">
		<stop  offset="0" style="stop-color:#F68B1F"/>
		<stop  offset="1" style="stop-color:#FFFFFF"/>
	</linearGradient>
	<path fill-rule="evenodd" clip-rule="evenodd" fill="url(#SVGID_2_)" d="M320.7,102.3c0,49.3-40.1,80.5-89.4,80.5
		c-49.3,0-89.2-31.2-89.2-80.5S182,13,231.3,13C280.7,13,320.7,53,320.7,102.3"/>
	<path fill-rule="evenodd" clip-rule="evenodd" fill="#F68B1F" d="M307,102.9c0,30.2-34.1,54.6-76.2,54.6
		c-42.1,0-76.2-24.5-76.2-54.6c0-30.2,34.1-54.6,76.2-54.6C272.9,48.3,307,72.7,307,102.9"/>
	
		<linearGradient id="SVGID_3_" gradientUnits="userSpaceOnUse" x1="101.1775" y1="148.0421" x2="126.395" y2="173.2596" gradientTransform="matrix(0.9642 0.2653 -0.2653 0.9642 31.8692 -95.1941)">
		<stop  offset="0" style="stop-color:#FFFFFF"/>
		<stop  offset="4.820809e-02" style="stop-color:#FEF6ED"/>
		<stop  offset="0.2569" style="stop-color:#FBD0A5"/>
		<stop  offset="0.4442" style="stop-color:#F9B26B"/>
		<stop  offset="0.6034" style="stop-color:#F79D42"/>
		<stop  offset="0.7282" style="stop-color:#F69028"/>
		<stop  offset="0.8033" style="stop-color:#F68B1F"/>
	</linearGradient>
	<circle fill="url(#SVGID_3_)" cx="108.3" cy="106.4" r="33.7"/>
	<path fill-rule="evenodd" clip-rule="evenodd" fill="#F68B1F" d="M135.7,93.5c5.7,9.9-1.4,24.7-16,33.1c-14.5,8.4-31,7.2-36.7-2.7
		c-5.7-9.9,1.4-24.7,16-33.1C113.6,82.4,130,83.6,135.7,93.5"/>
	<g>
		<linearGradient id="SVGID_4_" gradientUnits="userSpaceOnUse" x1="5.8597" y1="82.1805" x2="101.2378" y2="229.0325">
			<stop  offset="0" style="stop-color:#FFFFFF"/>
			<stop  offset="4.820809e-02" style="stop-color:#FEF6ED"/>
			<stop  offset="0.2569" style="stop-color:#FBD0A5"/>
			<stop  offset="0.4442" style="stop-color:#F9B26B"/>
			<stop  offset="0.6034" style="stop-color:#F79D42"/>
			<stop  offset="0.7282" style="stop-color:#F69028"/>
			<stop  offset="0.8033" style="stop-color:#F68B1F"/>
		</linearGradient>
		<path fill="url(#SVGID_4_)" d="M118.9,182.1c0-29.4-23.8-53.2-53.2-53.2c-29.4,0-53.2,23.8-53.2,53.2c0,0.1,0,0.2,0,0.3h106.4
			C118.9,182.3,118.9,182.2,118.9,182.1z"/>
	</g>
	<g>
		<linearGradient id="SVGID_5_" gradientUnits="userSpaceOnUse" x1="384.5498" y1="119.1828" x2="369.9152" y2="162.0772">
			<stop  offset="0" style="stop-color:#FFFFFF"/>
			<stop  offset="4.820809e-02" style="stop-color:#FEF6ED"/>
			<stop  offset="0.2569" style="stop-color:#FBD0A5"/>
			<stop  offset="0.4442" style="stop-color:#F9B26B"/>
			<stop  offset="0.6034" style="stop-color:#F79D42"/>
			<stop  offset="0.7282" style="stop-color:#F69028"/>
			<stop  offset="0.8033" style="stop-color:#F68B1F"/>
		</linearGradient>
		<path fill="url(#SVGID_5_)" d="M415.8,170.2c0-26.8-21.7-48.5-48.5-48.5c-26.8,0-48.5,21.7-48.5,48.5c0,3.8,0.4,7.4,1.3,11h94.5
			C415.3,177.7,415.8,174,415.8,170.2z"/>
	</g>
	<g>
		<linearGradient id="SVGID_6_" gradientUnits="userSpaceOnUse" x1="215.2657" y1="138.7798" x2="215.2657" y2="185.6538">
			<stop  offset="0" style="stop-color:#F68B1F"/>
			<stop  offset="0.5308" style="stop-color:#CB672F"/>
			<stop  offset="1" style="stop-color:#A1453F"/>
		</linearGradient>
		<polygon fill="url(#SVGID_6_)" points="417.8,182.9 416,179.3 414,175.9 411.2,171.5 408.4,167.9 405,163.7 401.6,160.1 
			397.6,156.3 393.8,153.1 389.6,150.1 385.4,147.5 380.8,144.9 376.8,142.9 372.8,141.3 369.2,140.3 365.6,139.5 362,138.9 
			357.8,138.5 83,139.1 78.6,139.3 74.2,139.5 69.4,140.1 65.4,140.9 60.2,142.1 56.6,143.3 52.8,144.7 49,146.1 44.2,148.5 
			40.6,150.3 36,153.3 31.8,156.5 27.4,160.1 23.6,163.9 20.6,167.5 17.4,171.7 15,175.9 13.2,179.5 12.2,182.9 11.6,185.8 
			419,185.8 		"/>
	</g>
	
		<radialGradient id="SVGID_7_" cx="271.3896" cy="133.3459" r="108.2159" fx="338.517" fy="113.7265" gradientUnits="userSpaceOnUse">
		<stop  offset="0" style="stop-color:#FFFFFF"/>
		<stop  offset="0.1334" style="stop-color:#FCE800"/>
		<stop  offset="0.8593" style="stop-color:#EC8F27"/>
	</radialGradient>
	<polygon fill-rule="evenodd" clip-rule="evenodd" fill="url(#SVGID_7_)" points="338.6,113.9 375.4,162.1 374,163.1 331,124.5 
		166,154.5 165.8,152.9 319.2,117.7 234.8,88.9 235.8,87.7 	"/>
</g>
</svg>
