<?xml version="1.0" encoding="utf-8"?>
<!-- Generator: Adobe Illustrator 19.0.1, SVG Export Plug-In . SVG Version: 6.00 Build 0)  -->
<!DOCTYPE svg PUBLIC "-//W3C//DTD SVG 1.1//EN" "http://www.w3.org/Graphics/SVG/1.1/DTD/svg11.dtd">
<svg version="1.1" id="Layer_1" xmlns="http://www.w3.org/2000/svg" xmlns:xlink="http://www.w3.org/1999/xlink" x="0px" y="0px"
	 viewBox="0 0 462 387" enable-background="new 0 0 462 387" xml:space="preserve">
<g>
	<path fill="none" stroke="#3A82C2" stroke-width="4" stroke-miterlimit="10" d="M268.5,385C374.1,385,460,299.1,460,193.5
		S374.1,2,268.5,2S77,87.9,77,193.5S162.9,385,268.5,385z"/>
	<path fill="none" stroke="#3A82C2" stroke-width="4" stroke-miterlimit="10" d="M268.5,364.7c94.4,0,171.2-76.8,171.2-171.2
		S362.9,22.3,268.5,22.3S97.3,99.1,97.3,193.5S174.1,364.7,268.5,364.7z"/>
	<path fill="none" stroke="#3A82C2" stroke-width="4" stroke-miterlimit="10" d="M268.5,344.3c83.2,0,150.8-67.6,150.8-150.8
		S351.7,42.7,268.5,42.7s-150.8,67.6-150.8,150.8S185.3,344.3,268.5,344.3z"/>
	<path fill="none" stroke="#3A82C2" stroke-width="4" stroke-miterlimit="10" d="M268.5,324c72,0,130.5-58.5,130.5-130.5
		S340.5,63,268.5,63S138,121.5,138,193.5S196.5,324,268.5,324z"/>
	<path fill="none" stroke="#3A82C2" stroke-width="4" stroke-miterlimit="10" d="M268.5,303.6c60.8,0,110.1-49.4,110.1-110.1
		S329.3,83.4,268.5,83.4s-110.1,49.4-110.1,110.1S207.7,303.6,268.5,303.6z"/>
	<path fill="none" stroke="#3A82C2" stroke-width="4" stroke-miterlimit="10" d="M268.5,283.3c49.5,0,89.8-40.2,89.8-89.8
		s-40.2-89.8-89.8-89.8s-89.8,40.2-89.8,89.8S219,283.3,268.5,283.3z"/>
	<circle fill="none" stroke="#3A82C2" stroke-width="4" stroke-miterlimit="10" cx="268.5" cy="193.5" r="69.4"/>
</g>
<path id="firewall_2_" fill="#63A1D7" d="M229,278.5v17.8l10.5,4.6l10.5-4.6v-17.8h-11.4H229z M233,282.5h6v13.8l-6-2.3V282.5z"/>
<g>
	<polygon fill="#63A1D7" points="51,261.5 38.4,261.5 27,269.3 27,259.3 27,254.3 27,237.5 51,237.5 	"/>
	<polygon fill="#63A1D7" points="21,237.5 21,261.5 10.9,261.5 0,269.3 0,259.3 0,254.3 0,237.5 	"/>
</g>
<g>
	<polygon fill="#FFFFFF" points="338,249.5 345.3,249.5 351,254.7 351,249.1 351,246.3 351,236.5 338,236.5 	"/>
	<polygon fill="#FFFFFF" points="354,236.5 354,249.5 360.6,249.5 366,254.7 366,249.1 366,246.3 366,236.5 	"/>
</g>
<path fill="#F68B20" d="M126.1,208.8c0-4.3-3.5-7.7-7.7-7.7c-1.1,0-2.1,0.2-3.1,0.6c-0.2-8.6-7.3-15.5-15.9-15.5
	c-7,0-12.9,4.5-15.1,10.8c-1.2-0.9-2.7-1.4-4.3-1.4c-4,0-7.2,3.2-7.2,7.2c0,0.6,0.1,1.2,0.2,1.8c0,0,0,0,0,0c-0.5,0-0.9,0.1-1.4,0.1
	c-2.7,0.6-4.7,3-4.7,5.9c0,3.3,2.7,6,6,6c-0.2,0,45.9,0,45.9,0C122.9,216.2,126.1,212.9,126.1,208.8z"/>
<g>
	<circle fill="#9BCA3E" cx="147.6" cy="148.8" r="9.5"/>
	<path fill="none" stroke="#2F7BBF" stroke-width="2.28" stroke-miterlimit="10" d="M151.4,149.3c0,2.1-1.7,3.8-3.8,3.8
		s-3.8-1.7-3.8-3.8v0"/>
	<rect x="149.5" y="144.1" fill="#2F7BBF" width="2.8" height="2.8"/>
	<rect x="142.8" y="144.1" fill="#2F7BBF" width="2.8" height="2.8"/>
</g>
<path id="Domains" fill="#FFFFFF" d="M134,255.5v46h46v-46H134z M145,259.5h5v5h-5V259.5z M138,259.5h5v5h-5V259.5z M176,297.5h-38
	v-28h38V297.5z M154,292.5h-11v-18h11V292.5z M171,278.5h-11v-4h11V278.5z M171,285.5h-11v-4h11V285.5z M171,292.5h-11v-5h11V292.5z
	"/>
<g>
	
		<line fill="none" stroke="#FFFFFF" stroke-width="5.3428" stroke-linecap="round" stroke-miterlimit="10" x1="203.3" y1="140.2" x2="198.8" y2="132.9"/>
	
		<line fill="none" stroke="#FFFFFF" stroke-width="5.3428" stroke-linecap="round" stroke-miterlimit="10" x1="185.1" y1="172.2" x2="176.8" y2="170.2"/>
	
		<line fill="none" stroke="#FFFFFF" stroke-width="5.3428" stroke-linecap="round" stroke-miterlimit="10" x1="187.2" y1="209.9" x2="179.9" y2="214.5"/>
	<g>
		<circle fill="#FFFFFF" cx="313.6" cy="203" r="12.9"/>
		<circle fill="#FFFFFF" cx="220.1" cy="180.8" r="7.4"/>
		<polygon fill="#63A1D7" points="282.8,198.9 285.2,189.4 284.9,189.4 287.1,180.7 225.7,147 219.3,174.8 216.5,186.9 210,215 
			280.4,210.5 282.5,201.4 282.4,201.4 		"/>
		
			<rect x="273.9" y="180.4" transform="matrix(0.9744 0.2248 -0.2248 0.9744 52.1496 -61.3494)" fill="#143959" width="43.2" height="35.8"/>
		
			<rect x="273.7" y="215.7" transform="matrix(0.9744 0.2248 -0.2248 0.9744 56.5985 -59.7748)" fill="#63A1D7" width="34.1" height="5.9"/>
		<polygon fill="#143959" points="277.8,251.6 291.2,221.7 306.5,225.3 293.1,255.1 		"/>
	</g>
</g>
</svg>
