<?xml version="1.0" encoding="UTF-8" standalone="no"?>
<svg width="373px" height="374px" viewBox="0 0 373 374" version="1.1" xmlns="http://www.w3.org/2000/svg" xmlns:xlink="http://www.w3.org/1999/xlink" xmlns:sketch="http://www.bohemiancoding.com/sketch/ns">
    <!-- Generator: Sketch 3.3.3 (12072) - http://www.bohemiancoding.com/sketch -->
    <title>Artwork</title>
    <desc>Created with Sketch.</desc>
    <defs></defs>
    <g id="YJS-CHina" stroke="none" stroke-width="1" fill="none" fill-rule="evenodd" sketch:type="MSPage">
        <g id="overview-yjs-banner" sketch:type="MSArtboardGroup" transform="translate(-610.000000, -152.000000)">
            <g id="banner" sketch:type="MSLayerGroup" transform="translate(31.000000, 151.000000)">
                <g id="Example-module-Copy-2" transform="translate(0.000000, 0.500000)" sketch:type="MSShapeGroup">
                    <g id="Artwork" transform="translate(579.000000, 0.000000)">
                        <g id="Imported-Layers" transform="translate(0.000000, 0.900391)">
                            <path d="M186.5,373.177 C83.704,373.177 0.073,289.546 0.073,186.75 C0.073,83.954 83.704,0.323 186.5,0.323 C289.296,0.323 372.927,83.954 372.927,186.75 C372.927,289.546 289.296,373.177 186.5,373.177 L186.5,373.177 Z M186.5,4.177 C85.829,4.177 3.927,86.079 3.927,186.75 C3.927,287.421 85.829,369.323 186.5,369.323 C287.171,369.323 369.073,287.421 369.073,186.75 C369.073,86.079 287.171,4.177 186.5,4.177 L186.5,4.177 Z" id="Fill-2" fill="#3982C2"></path>
                            <path d="M186.5,353.572 C94.514,353.572 19.678,278.736 19.678,186.75 C19.678,94.764 94.514,19.928 186.5,19.928 C278.486,19.928 353.322,94.764 353.322,186.75 C353.322,278.736 278.486,353.572 186.5,353.572 L186.5,353.572 Z M186.5,23.781 C96.639,23.781 23.531,96.889 23.531,186.75 C23.531,276.611 96.639,349.719 186.5,349.719 C276.361,349.719 349.469,276.611 349.469,186.75 C349.469,96.889 276.361,23.781 186.5,23.781 L186.5,23.781 Z" id="Fill-3" fill="#3982C2"></path>
                            <path d="M186.5,333.968 C105.324,333.968 39.283,267.926 39.283,186.75 C39.283,105.574 105.324,39.533 186.5,39.533 C267.676,39.533 333.718,105.574 333.718,186.75 C333.718,267.926 267.676,333.968 186.5,333.968 L186.5,333.968 Z M186.5,43.386 C107.449,43.386 43.136,107.699 43.136,186.75 C43.136,265.801 107.449,330.114 186.5,330.114 C265.551,330.114 329.864,265.801 329.864,186.75 C329.864,107.699 265.551,43.386 186.5,43.386 L186.5,43.386 Z" id="Fill-4" fill="#3982C2"></path>
                            <path d="M186.5,314.362 C116.134,314.362 58.887,257.115 58.887,186.75 C58.887,116.384 116.134,59.137 186.5,59.137 C256.865,59.137 314.112,116.384 314.112,186.75 C314.112,257.115 256.865,314.362 186.5,314.362 L186.5,314.362 Z M186.5,62.991 C118.259,62.991 62.741,118.509 62.741,186.75 C62.741,254.991 118.259,310.509 186.5,310.509 C254.741,310.509 310.259,254.991 310.259,186.75 C310.259,118.509 254.741,62.991 186.5,62.991 L186.5,62.991 Z" id="Fill-5" fill="#3982C2"></path>
                            <path d="M186.5,294.758 C126.944,294.758 78.492,246.306 78.492,186.75 C78.492,127.194 126.944,78.742 186.5,78.742 C246.056,78.742 294.508,127.194 294.508,186.75 C294.508,246.306 246.056,294.758 186.5,294.758 L186.5,294.758 Z M186.5,82.596 C129.069,82.596 82.346,129.319 82.346,186.75 C82.346,244.181 129.069,290.904 186.5,290.904 C243.931,290.904 290.654,244.181 290.654,186.75 C290.654,129.319 243.931,82.596 186.5,82.596 L186.5,82.596 Z" id="Fill-6" fill="#3982C2"></path>
                            <path d="M186.5,275.153 C137.754,275.153 98.097,235.496 98.097,186.75 C98.097,138.004 137.754,98.347 186.5,98.347 C235.246,98.347 274.903,138.004 274.903,186.75 C274.903,235.496 235.246,275.153 186.5,275.153 L186.5,275.153 Z M186.5,102.2 C139.879,102.2 101.95,140.129 101.95,186.75 C101.95,233.371 139.879,271.3 186.5,271.3 C233.121,271.3 271.05,233.371 271.05,186.75 C271.05,140.129 233.121,102.2 186.5,102.2 L186.5,102.2 Z" id="Fill-7" fill="#3982C2"></path>
                            <path d="M186.5,255.549 C148.564,255.549 117.701,224.685 117.701,186.75 C117.701,148.814 148.564,117.951 186.5,117.951 C224.435,117.951 255.299,148.814 255.299,186.75 C255.299,224.685 224.435,255.549 186.5,255.549 L186.5,255.549 Z M186.5,121.805 C150.689,121.805 121.555,150.939 121.555,186.75 C121.555,222.56 150.689,251.695 186.5,251.695 C222.31,251.695 251.445,222.56 251.445,186.75 C251.445,150.939 222.31,121.805 186.5,121.805 L186.5,121.805 Z" id="Fill-8" fill="#3982C2"></path>
                            <path d="M235.529,237.133 C230.267,237.133 226,241.399 226,246.662 C226,251.925 235.529,261 235.529,261 C235.529,261 245.059,251.925 245.059,246.662 C245.059,241.399 240.792,237.133 235.529,237.133 L235.529,237.133 Z M235.529,250.746 C233.274,250.746 231.445,248.918 231.445,246.662 C231.445,244.406 233.274,242.578 235.529,242.578 C237.785,242.578 239.613,244.406 239.613,246.662 C239.613,248.918 237.785,250.746 235.529,250.746 L235.529,250.746 Z" id="Fill-9" fill="#63A1D7"></path>
                        </g>
                        <path d="M208.9525,181.994667 L192.093,181.994667 L198.8375,154.5 L155,194.199795 L171.8595,194.199795 L165.11675,221.694462 L208.9525,181.994667" id="Imported-Layers" fill="#F78B20"></path>
                        <g id="Imported-Layers" transform="translate(259.000000, 141.500000)">
                            <path d="M0,10 C0,15.523 4.477,20 10,20 C15.523,20 20,15.523 20,10 C20,4.477 15.523,0 10,0 C4.477,0 0,4.477 0,10" id="Fill-1" fill="#9BCA3E"></path>
                            <path d="M6,10.5 C6,12.709 7.791,14.5 10,14.5 C12.209,14.5 14,12.709 14,10.5" id="Stroke-2" stroke="#2F7BBF" stroke-width="2.4"></path>
                            <path d="M5,5 L8,5 L8,8 L5,8 L5,5 Z" id="Fill-3" fill="#2F7BBF"></path>
                            <path d="M12,5 L15,5 L15,8 L12,8 L12,5 Z" id="Fill-4" fill="#2F7BBF"></path>
                        </g>
                        <path d="M86.529,154.5 C81.267,154.5 77,158.766 77,164.029 C77,169.292 86.529,178.367 86.529,178.367 C86.529,178.367 96.059,169.292 96.059,164.029 C96.059,158.766 91.792,154.5 86.529,154.5 L86.529,154.5 Z M86.529,168.113 C84.274,168.113 82.445,166.285 82.445,164.029 C82.445,161.773 84.274,159.945 86.529,159.945 C88.785,159.945 90.613,161.773 90.613,164.029 C90.613,166.285 88.785,168.113 86.529,168.113 L86.529,168.113 Z" id="Imported-Layers" fill="#63A1D7"></path>
                        <path d="M310.292,219.5 L292.758,219.5 L289,232.024 L289,244.549 L314.05,244.549 L314.05,232.024 L310.292,219.5 L310.292,219.5 Z M291.505,234.529 L311.545,234.529 L311.545,242.044 L291.505,242.044 L291.505,234.529 Z M306.535,237.034 L309.04,237.034 L309.04,239.539 L306.535,239.539 L306.535,237.034 Z" id="Imported-Layers" fill="#63A1D7"></path>
                    </g>
                </g>
            </g>
        </g>
    </g>
</svg>