<svg xmlns="http://www.w3.org/2000/svg" viewBox="0 0 645 645"><g fill="none" stroke="#3A82C2" stroke-width="4" stroke-miterlimit="10"><path d="M319.8 526.2c113.5 0 205.9-92.3 205.9-205.9s-92.3-205.9-205.9-205.9S114 206.8 114 320.4s92.3 205.8 205.8 205.8z"/><path d="M319.8 504.4c101.5 0 184-82.6 184-184s-82.6-184-184-184-184 82.6-184 184 82.5 184 184 184z"/><path d="M319.8 482.5c89.4 0 162.1-72.7 162.1-162.1s-72.7-162.1-162.1-162.1S157.7 231 157.7 320.4s72.7 162.1 162.1 162.1z"/><path d="M319.8 460.6c77.4 0 140.3-62.9 140.3-140.3S397.2 180 319.8 180s-140.3 63-140.3 140.4 62.9 140.2 140.3 140.2z"/><path d="M319.8 438.7c65.4 0 118.4-53.1 118.4-118.4S385.1 202 319.8 202s-118.4 53-118.4 118.4 53.1 118.3 118.4 118.3z"/><path d="M319.8 416.9c53.2 0 96.5-43.2 96.5-96.5s-43.2-96.5-96.5-96.5-96.5 43.2-96.5 96.5 43.3 96.5 96.5 96.5z"/><circle cx="319.8" cy="320.4" r="74.6"/></g><path fill="#FFF" d="M378.4 437.5v13.2l7.5 3.3 7.5-3.3v-13.2h-15zm3.2 3.3h4.3v10l-4.3-1.6v-8.4z"/><path fill="#143959" d="M225.9 251.3h191v142.4h-191z"/><circle fill="#FFF" cx="233.6" cy="261.1" r="2.5"/><circle fill="#FFF" cx="243.3" cy="261.1" r="2.5"/><circle fill="#FFF" cx="253.1" cy="261.1" r="2.5"/><path fill="#FFF" d="M231 268.8h180.4v119.9H231z"/><path fill="#EBEBEB" d="M231 288.9h180.4v42.9H231z"/><path fill="#7E7E7E" d="M280.9 297.8H362v5.6h-81.1z"/><path fill="#C9C9C9" d="M240.8 339.4h29.6V369h-29.6zm43.3 0h29.6V369h-29.6zm43.5 0h29.6V369h-29.6zm43.4 0h29.6V369H371z"/><path fill="#7E7E7E" d="M264.8 311.9h113.4v2.8H264.8z"/><path fill="#C9C9C9" d="M240.8 376.6h29.6v2.8h-29.6zm0 6.1h29.6v2.8h-29.6zm43.3-6.1h29.6v2.8h-29.6zm0 6.1h29.6v2.8h-29.6zm43.5-6.1h29.6v2.8h-29.6zm0 6.1h29.6v2.8h-29.6zm43.4-6.1h29.6v2.8H371zm0 6.1h29.6v2.8H371zm16.1-105.2h18.1v2.8h-18.1zm-24.8 0h18.1v2.8h-18.1zm-24 0h18.1v2.8h-18.1z"/><path fill="#7E7E7E" d="M264.8 319.9h113.4v2.8H264.8z"/><circle fill="#C9C9C9" cx="248.4" cy="278.9" r="4.8"/><path fill="#FFF" d="M332.1 159.7v-3.9H323v3.9h-1.3v9.1h11.7v-9.1h-1.3zm-2-1.9v1.9h-5.3v-1.9h5.3zm-1.3 8.4h-2.6v-3.9h2.6v3.9z"/><path fill="#F68B20" d="M191.2 388.1h-16.9l4.8-19.4-36.2 29.1h16.8l-4.8 19.3"/><g fill="#63A1D7"><path d="M260.3 181.6h-22.1l-4.7 15.8v15.8h31.7v-15.8l-4.9-15.8zm1.6 28.5h-25.4v-9.5h25.4v9.5z"/><path d="M255.5 203.8h3.1v3.1h-3.1z"/></g><path fill="#9BCA3E" d="M167.7 273.1v-7.5h-7.5v-6.5h7.5v-7.5h6.4v7.5h7.5v6.5h-7.5v7.5h-6.4zM329 495.6v-7.5h-7.5v-6.4h7.5v-7.5h6.5v7.5h7.5v6.4h-7.5v7.5H329zm130-84.9V401h-9.7v-8.6h9.7v-10.8h8.6v10.8h10.8v8.6h-10.8v9.7H459zm-68.8-212.9V186h-11.8v-10.8h11.8v-12.9H401v12.9h12.9V186H401v11.8h-10.8zM109.7 359.1v-11.8H97.8v-10.8h11.8v-12.9h10.8v12.9h12.9v10.8h-12.9v11.8h-10.7zm121.4 78.4v-4.3h-4.3v-4.3h4.3v-5.4h4.3v5.4h5.4v4.3h-5.4v4.3h-4.3zm-24.7-99.9v-4.3h-4.3V329h4.3v-5.4h4.3v5.4h5.4v4.3h-5.4v4.3h-4.3zm275.2-16.2v-4.3h-4.3v-4.3h4.3v-5.4h4.3v5.4h5.4v4.3h-5.4v4.3h-4.3zM310.7 205.3V201h-4.3v-4.3h4.3v-5.4h4.3v5.4h5.4v4.3H315v4.3h-4.3zM186 151.6v-4.3h-4.3V143h4.3v-5.4h4.3v5.4h5.4v4.3h-5.4v4.3H186zm346.1 75.2v-4.3h-4.3v-4.3h4.3v-5.4h4.3v5.4h5.4v4.3h-5.4v4.3h-4.3z"/><path fill="#63A1D7" d="M505.3 237.6v15.1h-17.2v-15.1h6.5v-4.3H473v4.3h6.4v15.1h-17.2v-15.1h6.4V229h12.9v-4.3H475v-15h17.2v15h-6.5v4.3h12.9v8.6h6.7z"/></svg>