<svg xmlns="http://www.w3.org/2000/svg" viewBox="0 0 645 645"><g fill="none" stroke="#3A82C2" stroke-width="4" stroke-miterlimit="10"><path d="M403.4 502.6c113.5 0 205.9-92.3 205.9-205.9S517 90.8 403.4 90.8s-205.9 92.3-205.9 205.9 92.4 205.9 205.9 205.9z"/><path d="M403.4 480.7c101.5 0 184-82.6 184-184s-82.6-184-184-184-183.9 82.6-183.9 184 82.5 184 183.9 184z"/><path d="M403.4 458.8c89.4 0 162.1-72.7 162.1-162.1s-72.7-162.1-162.1-162.1-162.1 72.7-162.1 162.1S314 458.8 403.4 458.8z"/><path d="M403.4 437c77.4 0 140.3-62.9 140.3-140.3s-62.9-140.3-140.3-140.3-140.2 62.9-140.2 140.3S326.2 437 403.4 437z"/><path d="M403.4 415.1c65.4 0 118.4-53.1 118.4-118.4s-53.1-118.4-118.4-118.4S285 231.3 285 296.7s53.2 118.4 118.4 118.4z"/><path d="M403.4 393.2c53.2 0 96.5-43.2 96.5-96.5s-43.2-96.5-96.5-96.5-96.5 43.2-96.5 96.5 43.3 96.5 96.5 96.5z"/><circle cx="403.4" cy="296.7" r="74.6"/></g><path fill="#FFF" d="M383.6 237.6h-84.9v67.7h17.2v17l21.2-17h46.5v-67.7z"/><path fill="#2F7BBF" d="M320.1 275.2H362v8.6h-41.9zm0-16.1H362v8.6h-41.9z"/><path fill="#63A1D7" d="M377.1 387h31.5l13.7 11.8V387h11.8v-45.2h-57V387z"/><path fill="#2F7BBF" d="M391.1 367.7h29v5.4h-29zm0-10.8h29v5.4h-29z"/><path fill="#F68B20" d="M254.1 289.2h-15.2L245 264l-39.7 35.9h15.3l-6.1 25.2"/><circle fill="#9BCA3E" cx="584.3" cy="359.3" r="13.3"/><path fill="none" stroke="#2F7BBF" stroke-width="2.981" stroke-miterlimit="10" d="M578.9 359.9c0 2.9 2.4 5.4 5.4 5.4 2.9 0 5.4-2.4 5.4-5.4"/><path fill="#2F7BBF" d="M577.6 352.6h4v4h-4zm9.4 0h4v4h-4z"/><path fill="#63A1D7" d="M518.8 244.5V300c-8.2 8.6-19.8 14.1-32.7 14.1-24.3 0-44.1-19.2-44.9-43.3v-54.2l77.6 27.9z"/><path fill="#2F7BBF" d="M480.1 255.3l-8.9 18.3h8.9"/><path fill="none" stroke="#143959" stroke-width="2" stroke-miterlimit="10" d="M469.7 238s-9.1-6.2-18.3 0"/><path fill="#FFF" d="M492.5 285.1c0 5.9-6 10.8-13.4 10.8s-13.4-4.8-13.4-10.8"/><path d="M488.8 258c0-4.5 3.7-8.2 8.1-8.2 4.4 0 8.1 3.9 8.1 8.2h3.2m-4.2-4.1l3.9-1m-38.2 5.1c0-4.5-3.7-8.2-8.2-8.2-4.4 0-8.2 3.9-8.2 8.2h-3.2m4.4-4.1l-4-1" fill="none" stroke="#143959" stroke-width="2" stroke-miterlimit="10"/><circle fill="#2F7BBF" cx="489.2" cy="269.4" r="1.3"/><circle fill="#2F7BBF" cx="496.5" cy="265.7" r="1.3"/><circle fill="#2F7BBF" cx="504" cy="269.4" r="1.3"/><circle fill="#2F7BBF" cx="453.7" cy="269.4" r="1.3"/><circle fill="#2F7BBF" cx="461" cy="265.7" r="1.3"/><circle fill="#2F7BBF" cx="468.4" cy="269.4" r="1.3"/><path fill="#143959" d="M430.6 237.6c0-30.7 24.9-55.7 55.7-55.7s55.7 24.9 55.7 55.7v84.9h-23v-74L441.4 221v49.5c.4 11.3 4.9 21.6 12.3 29.2v22.7h-22.6l-.3-83c-.2-.6-.2-1.2-.2-1.8z"/><path fill="#63A1D7" d="M541.6 258.2c0 5.9-4.8 10.8-10.8 10.8v-21.5c5.9 0 10.8 4.8 10.8 10.7z"/><path fill="#FFF" d="M148.7 261.2h-7.6v-7.5h-6.4v7.5h-7.5v6.5h7.5v7.5h6.4v-7.5h7.6"/><g fill="#9BCA3E"><circle cx="173.1" cy="359.3" r="10.8"/><circle cx="130.1" cy="359.3" r="10.8"/><circle cx="87.1" cy="359.3" r="10.8"/></g></svg>