<svg id="图层_1" xmlns="http://www.w3.org/2000/svg" xmlns:xlink="http://www.w3.org/1999/xlink" viewBox="0 0 1076 384"><style>.st0{fill:#8CC32B;} .st1{fill:#666666;} .st2{fill:#999999;} .st3{fill:none;stroke:#999999;stroke-miterlimit:10;} .st4{fill:#2276BD;} .st5{clip-path:url(#SVGID_2_);fill:url(#SVGID_3_);} .st6{clip-path:url(#SVGID_5_);fill:url(#SVGID_6_);}</style><path class="st1" d="M521.6 142.8h96.1c1.4 0 2.1.7 2.1 2.1 0 1.7-.7 2.5-2.1 2.5h-42.6c-.3.3-.6.8-.8 1.7-2.8 8.2-5.1 13.5-6.7 16h34.6c7-.6 10.4 3.4 10.1 11.8v48.5c.6 7.6-3 11.1-10.5 10.5h-64.9c-6.5 0-9.7-3.4-9.7-10.1v-50.2c0-7 3.6-10.5 11-10.5h24.4c2.8-4.8 5.3-10.7 7.6-17.7h-48.5c-1.4 0-2.1-.8-2.1-2.5-.1-1.4.6-2.1 2-2.1m86.4 34.1c.3-5.1-2.1-7.6-7.2-7.6h-61.5c-5.6-.6-8.2 2.1-7.6 8v19.4H608v-19.8zm0 24h-76.3v23.2c-.3 5.6 2 8.1 6.7 7.6h62c5.6.6 8.1-2.1 7.6-8v-22.8zm66.2-60.7c-.6-1.4-.1-2.4 1.3-3 1.4-.6 2.4-.1 3 1.3.3 1.1.8 2.8 1.7 5.1-.3-.6-.1.1.4 2.1h41.7c1.4 0 2.1.7 2.1 2.1 0 1.4-.7 2.1-2.1 2.1H643c-3.4-.3-4.9 1.3-4.6 4.6V198c-.6 14.3-2.8 25.4-6.7 33.3-1.1 1.7-2.4 2.2-3.8 1.7-1.1-1.1-1.3-2.7-.4-4.6 3.9-8.7 6.2-19.2 6.7-31.6v-42.1c-.6-6.5 2.1-9.4 8-8.9h33.7c-.3-2.3-.9-4.2-1.7-5.6m37.1 55.2c5.6 1.1 6.6 4.5 2.9 10.1-6.7 8.2-15.6 15.2-26.5 21.1 12.1 3.6 24.3 6.3 36.7 8 2 .6 2.8 1.4 2.5 2.5-.6 1.4-1.8 2.1-3.8 2.1-14.9-2-28.5-5.5-40.9-10.5-13.2 5.1-27.7 8.1-43.4 9.3-2 0-3-.8-3-2.5.3-1.7 1.4-2.5 3.4-2.5 12.6-.3 24.9-2.4 36.7-6.3-.8-.6-2.1-1.5-3.8-3-9.6-6.5-15.9-11.9-19-16.4-.8-1.4-.7-2.5.4-3.4 1.4-.8 2.5-.6 3.4.8 5.6 7.3 14 13.8 25.3 19.4 11.5-5.1 20.9-12.1 28.2-21.1 1.1-2 0-2.9-3.4-2.9h-56c-1.4 0-2.1-.8-2.1-2.5 0-1.4.7-2.1 2.1-2.1h60.3zm-51-41.7v11h43v-10.1c0-1.4.8-2.1 2.5-2.1 1.4 0 2.1.7 2.1 2.1v10.1h16c1.4 0 2.1.7 2.1 2.1 0 1.7-.7 2.5-2.1 2.5h-16v11.4c.3 4.8-2 7-6.7 6.7h-39.6c-3.9.6-5.8-1.8-5.5-7.2v-11h-12.6c-2.3-1.1-2.3-2.7 0-4.6h12.6v-11c0-1.1.7-1.8 2.1-2.1 1.4.4 2.1 1.1 2.1 2.2m0 15.6v10.5c0 2 .8 2.9 2.5 2.9h37.9c1.7 0 2.5-.8 2.5-2.5v-11h-42.9zm171.9 7.6c1.4 0 2.1.7 2.1 2.1 0 1.4-.7 2.1-2.1 2.1h-51.8c-11 19.4-21.9 35.3-32.9 47.6-.8 1.1-.6 1.8.8 2.1 28.9-.3 53.7-1.7 74.2-4.2-8.2-12.9-14.8-22.2-19.8-27.8-1.1-1.4-1.1-2.5 0-3.4 1.4-1.1 2.7-1 3.8.4 10.4 13.5 19.4 26.7 27 39.6.6 1.4.3 2.5-.8 3.4-1.4.6-2.5.1-3.4-1.3-1.7-3.1-3.1-5.5-4.2-7.2-27.8 3.1-55.5 4.6-83 4.6-1.7 0-2.7-.6-3-1.7-.3-1.1.1-2.3 1.3-3.4 15.7-16.9 27.4-33.1 35-48.9h-37.9c-1.4 0-2.1-.7-2.1-2.1 0-1.4.7-2.1 2.1-2.1h94.7zm-8-32c1.4 0 2.1.7 2.1 2.1-.3 1.4-1.1 2.1-2.5 2.1h-79.6c-1.1 0-1.7-.7-1.7-2.1 0-1.4.6-2.1 1.7-2.1h80zm40-6.4v14.8h14.3c7.9-.6 11.7 3.1 11.4 11 0 7.6-.1 17.1-.4 28.7 0 20.2-.3 31.8-.8 34.6-1.1 11.5-10.1 14.7-27 9.7-1.7-.6-2.4-1.5-2.1-2.9.8-1.7 2-2.3 3.4-1.7 12.6 4.5 19.8 2.7 21.5-5.5.6-2.8.8-8.6.8-17.3.3-3.9.4-9.3.4-16v-29.1c.3-5.1-2-7.3-6.7-6.7h-14.8c-.6 34.6-6.7 60.8-18.5 78.8-1.1 1.4-2.3 2-3.4 1.7-1.1-.6-1.3-1.7-.4-3.4 11.5-19.7 17.6-45.4 18.1-77.1h-16c-1.7 0-2.5-.8-2.5-2.5 0-1.4.8-2.1 2.5-2.1h16v-14.8c0-1.1.7-1.8 2.1-2.1 1.4.1 2.1.8 2.1 1.9M927 147c7.6-.3 11.1 2.7 10.5 8.9V228c0 6.7-3.5 10.1-10.5 10.1h-17.3c-7 .3-10.4-3.1-10.1-10.1v-72.1c-.6-6.5 1.8-9.4 7.2-8.9H927zm-18.1 4.2c-3.7-.6-5.2 1.4-4.6 5.9v70.4c-.3 4.5 1.7 6.6 5.9 6.3H927c4.5 0 6.6-2.1 6.3-6.3v-71.2c.3-3.4-1.7-5.1-5.9-5.1h-18.5zm43.8 25.3h8.9c5.6-.6 8.1 2.1 7.6 8v25.3c0 5.1 2.2 10 6.7 14.8 6.7 5.9 15.6 9.1 26.5 9.7h45.1c1.7 0 2.5.8 2.5 2.5 0 1.4-.8 2.1-2.5 2.1h-43.8c-16.9-1.1-28.5-7-35-17.7-2.5 6.2-6.9 11.9-13.1 17.3-1.1.8-2.3.7-3.4-.4-.8-1.1-.7-2.3.4-3.4 7.9-5.3 11.9-11.5 12.2-18.5v-32c.3-2.2-.8-3.2-3.4-3h-8.9c-1.7 0-2.5-.8-2.5-2.5.2-1.5 1.1-2.2 2.7-2.2m4.3-30.4c9 5.9 14.9 10.1 17.7 12.6.6 1.1.4 2.1-.4 3-.8.8-1.7.8-2.5 0-2.8-2.8-8.4-6.7-16.9-11.8-1.1-.8-1.4-1.8-.8-2.9.7-1.1 1.7-1.4 2.9-.9m52.6-5.9c0-1.7.7-2.5 2.1-2.5 1.4 0 2.1.8 2.1 2.5v8h31.2c1.1 0 1.8.7 2.1 2.1-.3 1.7-1 2.5-2.1 2.5h-31.2v8.9h21.1c5.9-.3 8.7 2.9 8.4 9.7v11c.3 5.3-2.5 8-8.4 8h-21.1v3.4c13.5 7.9 24.3 15.7 32.5 23.6 1.1 1.1 1.3 2.3.4 3.4-.8 1.1-1.8 1.1-3 0-7-6.5-17-14.2-29.9-23.2V227c0 .8-.7 1.4-2.1 1.7-1.4-.3-2.1-.8-2.1-1.7v-32c-9.3 9.8-18.7 17.8-28.2 24-1.1.8-2.3.8-3.4 0-.8-1.4-.7-2.5.4-3.4 14-9 23.9-17.4 29.5-25.3h-21.1c-4.8 0-7.2-2.5-7.2-7.6v-12.6c-.3-5.9 2.4-8.7 8-8.4h21.9v-8.9H980c-1.1 0-1.8-.8-2.1-2.5 0-1.4.7-2.1 2.1-2.1h29.5v-8zm-22.7 26.2c-2-.3-2.8.7-2.5 3v14.3c0 1.7.7 2.5 2.1 2.5h23.2v-19.8h-22.8zm49.3 0h-22.3v19.8h22.3c2 0 3-1.1 3-3.4v-13.1c-.1-2.5-1.1-3.6-3-3.3"/><path class="st2" d="M647.9 267.3c-.3-4.2-3-6.2-9.6-6.2-6.2 0-8.3 2.4-8.3 5 0 2.8 2.1 3.9 5.1 4.3l8.1 1.1c4.7.6 8 2.4 8 6.9 0 6.9-7.8 7.6-12.1 7.6-7 0-12-2.4-12.4-8.7h2.3c.2 2.6.8 6.7 10.7 6.7 6.7 0 9.2-2 9.2-5.6 0-3-2.1-4.2-5.1-4.6l-8.9-1.2c-3.2-.4-7.1-1.8-7.1-6.4 0-2.9 2-7.2 10.6-7.2 9.3 0 11.5 4.3 11.8 8.2h-2.3zm31.8 17.9h-2.3v-5h-.1c-1.6 3-4.9 5.8-10.7 5.8-11.6 0-11.6-7.4-11.6-10.5v-15.6h2.3v15.5c0 5.1 1.9 8.6 9.4 8.6s10.7-4.6 10.7-9.3v-14.8h2.3v25.3zm7-4.9h2.6v4.9h-2.6zm9.5-30.4h2.3v15.4h.1c1.4-2.8 5-6.2 11.2-6.2 7.7 0 13.5 5.3 13.5 13.4 0 7.1-4.6 13.5-13.5 13.5-6.5 0-10-3.3-11.2-6.3h-.1v5.5h-2.3v-35.3zm24.8 22.6c0-7.7-5.4-11.4-11.3-11.4-5.1 0-11.6 2.8-11.6 11.7 0 4.5 2.4 11.2 11.9 11.2 6.3 0 11-4.3 11-11.5m6-4.8c.8-6.4 4.2-8.6 11.8-8.6 7.3 0 11.6 1.7 11.6 7.4v14.2c0 1.9 0 3 1.7 3 .7 0 1.4-.1 2.2-.4v2c-.7.2-1.6.4-2.8.4-3.1 0-3.1-2.2-3.1-5.5h-.1c-2.8 5.2-8.8 5.8-12.1 5.8-2.2 0-10.4 0-10.4-7.7 0-5.1 4.4-7 9.5-7.3l8.9-.6c2.6-.1 3.9-.5 3.9-3.6 0-3.4-1.9-5.7-9.4-5.7-6.7 0-8.8 2.1-9.4 6.6H727zm21.1 3.4c-.6.6-2 1.2-4.2 1.3l-8.6.6c-4.2.2-7.3 1.5-7.3 5.3 0 5.1 5.2 5.7 8.3 5.7 5 0 11.7-2.2 11.7-8.3v-4.6zm8.8-21.2h2.3v5.2h-2.3v-5.2zm0 10h2.3v25.3h-2.3v-25.3zm31.3 19.8c-1.3 3-4.8 6.3-11.3 6.3-8.9 0-13.5-6.4-13.5-13.5 0-8.1 5.8-13.4 13.5-13.4 6.2 0 9.8 3.4 11.2 6.2h.1v-15.4h2.3v35.3h-2.3v-5.5zm.3-6.9c0-8.9-6.4-11.7-11.6-11.7-5.8 0-11.3 3.7-11.3 11.4 0 7.3 4.7 11.6 11 11.6 9.5-.1 11.9-6.7 11.9-11.3m32.2 12.4h-2.3v-5h-.1c-1.6 3-4.9 5.8-10.7 5.8-11.6 0-11.6-7.4-11.6-10.5v-15.6h2.3v15.5c0 5.1 1.9 8.6 9.4 8.6s10.7-4.6 10.7-9.3v-14.8h2.3v25.3zm7-4.9h2.6v4.9h-2.6zm33.1-12.4c-.2-3.2-4.6-6.8-10.7-6.8-8.1 0-12 5.7-12 11.7 0 4.1 2.9 11.2 12 11.2 5.1 0 9.9-2.4 11.1-7.7h2.3c-1.3 6.6-7 9.6-13.3 9.6-8.3 0-14.3-5.3-14.3-13.2 0-8.9 6.5-13.7 14.3-13.7 7.7 0 12.8 4.5 13 8.8h-2.4zm19.4-8.8c9 0 14.3 6.4 14.3 13.4 0 7.2-5.2 13.4-14.3 13.4-9 0-14.3-6.3-14.3-13.4.1-7 5.3-13.4 14.3-13.4m0 24.9c8.1 0 12-5.7 12-11.5 0-5.7-4-11.5-12-11.5s-12 5.7-12 11.5 4 11.5 12 11.5m18.4-24.1h2.3v4.3h.1c2-3.3 5.7-5.1 9.7-5.1 6.2 0 8.7 2.7 9.7 5.9 1.8-3.9 5.1-5.9 9.8-5.9 7.3 0 10.5 3.2 10.5 8.9v17.2h-2.3v-16.4c0-4.2-2.3-7.7-8.2-7.7-6.2 0-9.4 3.2-9.4 8.6v15.6h-2.3v-16.9c0-4.5-2.3-7.3-8.2-7.3-5.5 0-9.4 3.3-9.4 9v15.1h-2.3v-25.3z"/><path class="st3" d="M606.9 274.9h-86.6m529.1 0h-86.6"/><path class="st0" d="M324 79.3c-81.2 83.1-127.2 114.4-127.2 114.4h87.8L324 79.3z"/><path class="st4" d="M122.1 95.5c4.9-1.9 12.5-4.7 23.6-6.5 6.2-1 12.5-1.5 18.9-1.5 2.8 0 5.5.1 8.2.3 5.5-4.2 11.5-7.6 17.9-10.3 5.9-2.5 12.2-4.3 18.7-5.3 4.2-.7 8.4-1 12.8-1 19.2 0 36.9 6.7 50.8 17.8 1.5 1.2 3 2.5 4.5 3.9l25.2-22.5c-20.8-20.3-49.2-32.8-80.5-32.8-29.1 0-55.6 10.8-75.8 28.5-4.4 3.9-8.6 8.1-12.4 12.6-4.4 5.1-8.4 10.8-11.9 16.8M368 87.7c-9.2 0-18.1 1.1-26.6 3.1L329 131.3c1.9-1.1 3.9-2 6-2.9 1.8-.8 3.7-1.5 5.6-2.2 8.6-3.1 17.8-4.8 27.4-4.8 45.1 0 81.7 36.6 81.7 81.7 0 43.8-34.4 79.5-77.7 81.6h-96.1c-5.3 7.2-11.3 13.9-17.9 20-5.5 5.1-11.5 9.2-17.8 13.3H379c58.6-5.5 104.4-54.8 104.4-114.8 0-63.8-51.6-115.5-115.4-115.5"/><defs><path id="SVGID_4_" d="M57.4 160.2c-.1.1-.1.3-.2.5-.2.6-.5 1.3-.7 1.9-.1.2-.2.5-.3.7-.2.6-.4 1.2-.6 1.7-.2.7-.5 1.4-.7 2.1-.1.2-.1.4-.2.5-.2.6-.4 1.3-.6 1.9v.1C51 180 49.4 191 49.4 202.4c0 63.7 51.7 115.3 115.4 115.3 30.1 0 57.4-11.5 77.9-30.3 11.9-11 21.5-24.4 28-39.5H233c-14.7 22-39.7 36.5-68.1 36.5-45.2 0-81.8-36.6-81.8-81.8v-2.3c1.1-44.1 37.2-79.6 81.7-79.6 10.6 0 20.7 2 30 5.7 7.5-9.6 16.6-17.8 27-24.3-14.6-8.1-31.2-13.3-48.8-14.6-2.7-.2-5.5-.3-8.2-.3-48.8 0-90.5 30.3-107.4 73"/></defs><clipPath id="SVGID_2_"><use xlink:href="#SVGID_4_" overflow="visible"/></clipPath><linearGradient id="SVGID_3_" gradientUnits="userSpaceOnUse" x1="-419" y1="1052.999" x2="-418" y2="1052.999" gradientTransform="matrix(0 230.6822 230.6822 0 -242748.188 96743.055)"><stop offset="0" stop-color="#2276BD"/><stop offset=".202" stop-color="#2276BD"/><stop offset=".622" stop-color="#7EB853"/><stop offset=".818" stop-color="#8CC32C"/><stop offset="1" stop-color="#8CC32C"/></linearGradient><path class="st5" d="M49.3 87.2h221.3v230.7H49.3z"/><path class="st0" d="M239.6 232.1h36c1.6-5 4.9-15.3 5.7-20.6H247c-1.3 5.4-5.1 15.7-7.4 20.6"/></svg>